<svg viewBox="0 0 600 600" xmlns="http://www.w3.org/2000/svg">
  <defs>
    <linearGradient id="bg1" x1="0" y1="0" x2="1" y2="1">
      <stop offset="0%" stop-color="#C1440E"/>
      <stop offset="100%" stop-color="#8A2E0A"/>
    </linearGradient>
  </defs>
  <circle cx="300" cy="300" r="280" fill="url(#bg1)"/>
  <circle cx="300" cy="300" r="255" fill="none" stroke="#E8B84B" stroke-width="4"/>
  <circle cx="300" cy="300" r="240" fill="none" stroke="#E8B84B" stroke-width="1.5"/>

  <!-- Arco arabesco superior -->
  <path d="M 170 190 Q 300 90 430 190 Q 380 150 300 150 Q 220 150 170 190 Z" fill="#E8B84B"/>

  <!-- plato / cazuela estilizado -->
  <ellipse cx="300" cy="360" rx="130" ry="34" fill="#E8B84B"/>
  <path d="M 175 355 Q 300 420 425 355 L 415 375 Q 300 435 185 375 Z" fill="#F5D98A"/>

  <!-- vapor -->
  <path d="M 260 300 Q 250 260 270 230 Q 285 210 270 180" stroke="#F5D98A" stroke-width="6" fill="none" stroke-linecap="round"/>
  <path d="M 335 300 Q 345 260 325 230 Q 310 210 325 180" stroke="#F5D98A" stroke-width="6" fill="none" stroke-linecap="round"/>

  <!-- Texto -->
  <text x="300" y="475" text-anchor="middle" font-family="Georgia, serif" font-size="58" fill="#FFF8EC" font-weight="bold" letter-spacing="4">LEGADO</text>
  <text x="300" y="505" text-anchor="middle" font-family="Georgia, serif" font-size="16" fill="#F5D98A" letter-spacing="2">COSTA CARIBE · RAÍCES ÁRABES</text>
</svg>
