<svg viewBox="0 0 600 600" xmlns="http://www.w3.org/2000/svg">
  <rect width="600" height="600" fill="#1F3D3D"/>
  <rect x="30" y="30" width="540" height="540" fill="none" stroke="#C9A24B" stroke-width="2"/>
  <rect x="42" y="42" width="516" height="516" fill="none" stroke="#C9A24B" stroke-width="1"/>

  <!-- silueta de cedro (rama estilizada) -->
  <g stroke="#C9A24B" stroke-width="4" fill="none" stroke-linecap="round">
    <line x1="300" y1="150" x2="300" y2="330"/>
    <line x1="300" y1="180" x2="255" y2="150"/>
    <line x1="300" y1="180" x2="345" y2="150"/>
    <line x1="300" y1="220" x2="245" y2="195"/>
    <line x1="300" y1="220" x2="355" y2="195"/>
    <line x1="300" y1="260" x2="240" y2="240"/>
    <line x1="300" y1="260" x2="360" y2="240"/>
  </g>
  <g fill="#C9A24B">
    <ellipse cx="255" cy="150" rx="10" ry="16"/>
    <ellipse cx="345" cy="150" rx="10" ry="16"/>
    <ellipse cx="245" cy="195" rx="10" ry="16"/>
    <ellipse cx="355" cy="195" rx="10" ry="16"/>
    <ellipse cx="240" cy="240" rx="10" ry="16"/>
    <ellipse cx="360" cy="240" rx="10" ry="16"/>
  </g>

  <!-- ola caribe debajo -->
  <path d="M 200 340 Q 250 320 300 340 Q 350 360 400 340" stroke="#C9A24B" stroke-width="4" fill="none"/>

  <text x="300" y="420" text-anchor="middle" font-family="Georgia, serif" font-size="46" fill="#F4EBD0" letter-spacing="4">COSTA</text>
  <text x="300" y="400" text-anchor="middle" font-family="Georgia, serif" font-size="24" fill="#C9A24B">&amp;</text>
  <text x="300" y="465" text-anchor="middle" font-family="Georgia, serif" font-size="46" fill="#F4EBD0" letter-spacing="4">CEDRO</text>
  <text x="300" y="500" text-anchor="middle" font-family="Helvetica, Arial, sans-serif" font-size="14" fill="#C9A24B" letter-spacing="3">SELLO EDITORIAL · LEGADO</text>
</svg>
